<?xml version="1.0" encoding="UTF-8"?>
<svg id="Layer_1" xmlns="http://www.w3.org/2000/svg" version="1.1" viewBox="0 0 230.15 29.62">
  <!-- Generator: Adobe Illustrator 30.5.1, SVG Export Plug-In . SVG Version: 2.1.4 Build 3)  -->
  <defs>
    <style>
      .st0 {
        isolation: isolate;
      }
    </style>
  </defs>
  <g id="Generative_Object">
    <g class="st0">
      <g class="st0">
        <path d="M3.29,11.49c0-5.89,0-6.95-.08-8.16-.08-1.28-.38-1.89-1.62-2.15-.26-.08-.76-.08-1.1-.11-.26-.04-.49-.08-.49-.23,0-.23.19-.3.6-.3.87,0,1.89,0,4.27.11.26,0,7.78,0,8.65-.04.83-.04,1.51-.11,1.74-.23s.3-.15.42-.15.15.15.15.34c0,.26-.23.72-.3,1.78-.04.57-.08,1.28-.15,2.27-.04.38-.15.64-.3.64-.23,0-.3-.19-.3-.49,0-.49-.08-.94-.19-1.25-.26-.87-1.06-1.25-2.72-1.4-.64-.08-4.76-.11-5.18-.11-.15,0-.23.11-.23.38v10.43c0,.26.04.38.23.38.49,0,5.14,0,6.01-.08,1.02-.08,1.51-.19,1.89-.64.19-.23.3-.38.45-.38.11,0,.19.08.19.3s-.19.87-.3,2.12c-.11,1.17-.11,2.04-.15,2.57-.04.38-.11.57-.26.57-.23,0-.26-.3-.26-.6,0-.34-.04-.72-.15-1.06-.15-.57-.6-1.1-1.96-1.25-1.02-.11-4.76-.19-5.4-.19-.19,0-.26.11-.26.26v3.32c0,1.28-.04,5.67,0,6.46.08,1.55.3,2.38,1.25,2.76.64.26,1.66.34,3.14.34,1.13,0,2.38-.04,3.4-.34,1.21-.38,1.62-1.17,1.93-2.79.08-.42.15-.57.34-.57.23,0,.23.3.23.57,0,.3-.3,2.87-.49,3.66-.26.98-.57.98-2.04.98-2.8,0-4.04-.08-5.52-.11-1.51-.04-3.25-.11-4.72-.11-.91,0-1.81.15-2.8.11-.42,0-.6-.08-.6-.3,0-.11.19-.19.42-.23.38-.04.6-.04.87-.11.79-.19,1.28-.72,1.36-3.55.04-1.47.08-3.4.08-6.76v-6.65Z"/>
      </g>
      <g class="st0">
        <path d="M27.28,11.49c0-5.89,0-6.95-.08-8.16-.08-1.28-.38-1.89-1.62-2.15-.3-.08-.94-.11-1.28-.11-.15,0-.3-.08-.3-.23,0-.23.19-.3.6-.3,1.7,0,3.97.11,4.27.11.83,0,3.02-.11,4.76-.11,4.72,0,6.42,1.59,7.03,2.15.83.79,1.89,2.49,1.89,4.95,0,4.91-3.93,8.54-9.29,8.54-.19,0-.6,0-.79-.04-.19,0-.42-.08-.42-.26,0-.3.23-.34,1.02-.34,3.66,0,6.54-2.49,6.54-6.46,0-.94-.11-3.48-2.12-5.52-2-2.04-4.31-1.89-5.18-1.89-.64,0-1.28.08-1.62.23-.23.08-.3.34-.3.72v15.53c0,3.63,0,6.61.19,8.2.11,1.1.34,1.93,1.47,2.08.53.08,1.36.15,1.7.15.23,0,.3.11.3.23,0,.19-.19.3-.6.3-2.08,0-4.46-.11-4.65-.11-.11,0-2.49.11-3.63.11-.42,0-.6-.08-.6-.3,0-.11.08-.23.3-.23.34,0,.79-.08,1.13-.15.76-.15.94-.98,1.1-2.08.19-1.59.19-4.57.19-8.2v-6.65Z"/>
      </g>
      <g class="st0">
        <path d="M52.52,11.49c0-5.89,0-6.95-.08-8.16-.08-1.28-.45-1.93-1.28-2.12-.42-.11-.91-.15-1.17-.15-.15,0-.3-.08-.3-.23,0-.23.19-.3.6-.3,1.25,0,3.63.11,3.82.11s2.57-.11,3.7-.11c.42,0,.6.08.6.3,0,.15-.15.23-.3.23-.26,0-.49.04-.94.11-1.02.19-1.32.83-1.4,2.15-.08,1.21-.08,2.27-.08,8.16v6.65c0,3.63,0,6.61.19,8.2.11,1.1.34,1.93,1.47,2.08.53.08,1.32.15,1.55.15.34,0,.45.11.45.23,0,.19-.15.3-.57.3-2.08,0-4.5-.11-4.68-.11s-2.57.11-3.7.11c-.42,0-.6-.08-.6-.3,0-.11.08-.23.42-.23.23,0,.64-.04.98-.11.76-.15.98-1.02,1.13-2.12.19-1.59.19-4.57.19-8.2v-6.65Z"/>
      </g>
      <g class="st0">
        <path d="M73.93,13.9c1.17-1.13,6.31-6.54,8.61-8.92,2.27-2.34,2.42-2.72,2.42-3.17,0-.3-.19-.6-.49-.72-.26-.11-.34-.19-.34-.34s.23-.23.57-.23c1.1,0,.98.11,2.27.11,1.17,0,3.4-.11,4-.11.53,0,.64.11.64.26s-.08.23-.42.26c-.72.08-1.4.23-1.93.45-.94.38-1.66.83-3.93,3.02-3.33,3.21-7.63,7.48-8.61,8.58,2.38,2.61,9.26,9.6,11.03,11.26,3.1,2.91,4.42,3.74,6.23,4.08.34.08.72.11,1.1.11.3,0,.53.08.53.26s-.15.26-.57.26h-2.8c-3.29,0-4.16-.42-5.93-1.81-2.27-1.78-9.07-9.07-12.39-13.03v3.89c0,3.63,0,6.61.19,8.2.11,1.1.34,1.93,1.47,2.08.53.08,1.28.15,1.51.15.34,0,.45.15.45.26,0,.19-.15.26-.57.26-2.08,0-4.46-.11-4.65-.11s-2.42.11-3.55.11c-.42,0-.6-.04-.6-.26,0-.11.08-.26.42-.26.23,0,.64-.04.98-.11.76-.15.98-1.02,1.13-2.12.19-1.59.19-4.57.19-8.2v-6.65c0-5.89,0-6.95-.08-8.16-.08-1.28-.45-1.93-1.28-2.12-.42-.11-1.1-.15-1.36-.15-.3,0-.42-.08-.42-.23,0-.23.19-.3.6-.3,1.25,0,3.78.11,3.97.11s2.57-.11,3.7-.11c.42,0,.6.08.6.26,0,.15-.08.23-.42.26-.42.04-.45.04-.83.08-1.02.11-1.32.87-1.4,2.19-.08,1.21-.08,2.27-.08,8.16v2.42Z"/>
      </g>
      <g class="st0">
        <path d="M110.31,18.13c0,3.63,0,6.61.19,8.2.11,1.1.34,1.93,1.47,2.08.53.08,1.36.15,1.7.15.23,0,.3.11.3.23,0,.19-.19.3-.61.3-2.08,0-4.46-.11-4.65-.11s-2.57.11-3.7.11c-.42,0-.6-.08-.6-.3,0-.11.08-.23.3-.23.34,0,.79-.08,1.13-.15.76-.15.94-.98,1.1-2.08.19-1.59.19-4.57.19-8.2V2.15c-1.85.04-3.74.04-5.59.08-2.34.04-3.25.3-3.85,1.21-.42.64-.53.91-.64,1.17-.11.3-.23.38-.38.38-.11,0-.19-.11-.19-.34,0-.38.76-3.63.83-3.93.08-.23.23-.72.38-.72.26,0,.64.38,1.66.45,1.1.11,2.53.19,2.98.19h14.17c1.21,0,2.08-.08,2.68-.19.57-.08.91-.19,1.06-.19.19,0,.19.23.19.45,0,1.13-.11,3.74-.11,4.16,0,.34-.11.49-.26.49-.19,0-.26-.11-.3-.64,0-.15-.04-.26-.04-.42-.11-1.13-1.02-2-4.65-2.08-1.59-.04-3.17-.04-4.76-.08v15.98Z"/>
        <path d="M130.26,11.49c0-5.89,0-6.95-.08-8.16-.08-1.28-.38-1.89-1.62-2.15-.26-.08-.75-.08-1.1-.11-.26-.04-.49-.08-.49-.23,0-.23.19-.3.6-.3.87,0,1.89,0,4.27.11.26,0,7.78,0,8.65-.04.83-.04,1.51-.11,1.74-.23s.3-.15.42-.15.15.15.15.34c0,.26-.23.72-.3,1.78-.04.57-.08,1.28-.15,2.27-.04.38-.15.64-.3.64-.23,0-.3-.19-.3-.49,0-.49-.08-.94-.19-1.25-.26-.87-1.06-1.25-2.72-1.4-.64-.08-4.76-.11-5.18-.11-.15,0-.23.11-.23.38v10.43c0,.26.04.38.23.38.49,0,5.14,0,6.01-.08,1.02-.08,1.51-.19,1.89-.64.19-.23.3-.38.45-.38.11,0,.19.08.19.3s-.19.87-.3,2.12c-.11,1.17-.11,2.04-.15,2.57-.04.38-.11.57-.26.57-.23,0-.26-.3-.26-.6,0-.34-.04-.72-.15-1.06-.15-.57-.6-1.1-1.96-1.25-1.02-.11-4.76-.19-5.4-.19-.19,0-.26.11-.26.26v3.32c0,1.28-.04,5.67,0,6.46.08,1.55.3,2.38,1.25,2.76.64.26,1.66.34,3.14.34,1.13,0,2.38-.04,3.4-.34,1.21-.38,1.62-1.17,1.93-2.79.08-.42.15-.57.34-.57.23,0,.23.3.23.57,0,.3-.3,2.87-.49,3.66-.26.98-.57.98-2.04.98-2.8,0-4.04-.08-5.52-.11-1.51-.04-3.25-.11-4.72-.11-.91,0-1.81.15-2.8.11-.42,0-.6-.08-.6-.3,0-.11.19-.19.42-.23.38-.04.6-.04.87-.11.79-.19,1.29-.72,1.36-3.55.04-1.47.08-3.4.08-6.76v-6.65Z"/>
      </g>
      <g class="st0">
        <path d="M163.01,18.13c0,3.63,0,6.61.19,8.2.11,1.1.34,1.93,1.47,2.08.53.08,1.36.15,1.7.15.23,0,.3.11.3.23,0,.19-.19.3-.61.3-2.08,0-4.46-.11-4.65-.11s-2.57.11-3.7.11c-.42,0-.6-.08-.6-.3,0-.11.08-.23.3-.23.34,0,.79-.08,1.13-.15.76-.15.94-.98,1.1-2.08.19-1.59.19-4.57.19-8.2V2.15c-1.85.04-3.74.04-5.59.08-2.34.04-3.25.3-3.85,1.21-.42.64-.53.91-.64,1.17-.11.3-.23.38-.38.38-.11,0-.19-.11-.19-.34,0-.38.76-3.63.83-3.93.08-.23.23-.72.38-.72.26,0,.64.38,1.66.45,1.1.11,2.53.19,2.98.19h14.17c1.21,0,2.08-.08,2.68-.19.57-.08.91-.19,1.06-.19.19,0,.19.23.19.45,0,1.13-.11,3.74-.11,4.16,0,.34-.11.49-.26.49-.19,0-.26-.11-.3-.64,0-.15-.04-.26-.04-.42-.11-1.13-1.02-2-4.65-2.08-1.59-.04-3.17-.04-4.76-.08v15.98Z"/>
      </g>
      <g class="st0">
        <path d="M177.82,14.77c0-6.12,4.46-14.77,14.89-14.77,8.5,0,14.85,5.37,14.85,14.17s-5.97,15.45-15.07,15.45c-10.35,0-14.66-8.05-14.66-14.85ZM203.93,15.23c0-9.07-5.52-13.94-11.49-13.94-6.31,0-11.03,4.16-11.03,12.43,0,8.8,5.29,14.47,12.09,14.47,3.4,0,10.43-1.96,10.43-12.96Z"/>
        <path d="M216.17,28.6c-.53-.26-.57-.42-.57-1.44,0-1.89.15-3.4.19-4,.04-.42.11-.6.3-.6.23,0,.26.11.26.42,0,.34,0,.87.11,1.4.57,2.8,3.06,3.85,5.59,3.85,3.63,0,5.4-2.61,5.4-5.02,0-2.61-1.1-4.12-4.34-6.8l-1.7-1.4c-4-3.29-4.91-5.63-4.91-8.2,0-4.04,3.02-6.8,7.82-6.8,1.47,0,2.57.15,3.51.38.72.15,1.02.19,1.32.19s.38.08.38.26-.15,1.44-.15,4c0,.6-.08.87-.26.87-.23,0-.26-.19-.3-.49-.04-.45-.26-1.47-.49-1.89-.23-.42-1.25-2-4.72-2-2.61,0-4.65,1.62-4.65,4.38,0,2.15.98,3.51,4.61,6.35l1.06.83c4.46,3.51,5.52,5.86,5.52,8.88,0,1.55-.6,4.42-3.21,6.27-1.62,1.13-3.66,1.59-5.71,1.59-1.78,0-3.51-.26-5.06-1.02Z"/>
      </g>
    </g>
  </g>
</svg>