<?xml version="1.0" encoding="UTF-8"?>
<svg id="Layer_1" xmlns="http://www.w3.org/2000/svg" version="1.1" viewBox="0 0 42.12 42.12">
  <!-- Generator: Adobe Illustrator 30.5.1, SVG Export Plug-In . SVG Version: 2.1.4 Build 3)  -->
  <defs>
    <style>
      .st0 {
        isolation: isolate;
      }

      .st1 {
        fill: #fff;
      }
    </style>
  </defs>
  <g id="Generative_Object">
    <circle class="st1" cx="21.06" cy="21.06" r="21.06"/>
    <g class="st0">
      <g class="st0">
        <path d="M16.25,17.83c0-5.89,0-6.95-.08-8.16-.08-1.28-.38-1.89-1.62-2.15-.26-.08-.76-.08-1.1-.11-.26-.04-.49-.08-.49-.23,0-.23.19-.3.6-.3.87,0,1.89,0,4.27.11.26,0,7.78,0,8.65-.04.83-.04,1.51-.11,1.74-.23s.3-.15.42-.15.15.15.15.34c0,.26-.23.72-.3,1.78-.04.57-.08,1.28-.15,2.27-.04.38-.15.64-.3.64-.23,0-.3-.19-.3-.49,0-.49-.08-.94-.19-1.25-.26-.87-1.06-1.25-2.72-1.4-.64-.08-4.76-.11-5.18-.11-.15,0-.23.11-.23.38v10.43c0,.26.04.38.23.38.49,0,5.14,0,6.01-.08,1.02-.08,1.51-.19,1.89-.64.19-.23.3-.38.45-.38.11,0,.19.08.19.3s-.19.87-.3,2.12c-.11,1.17-.11,2.04-.15,2.57-.04.38-.11.57-.26.57-.23,0-.26-.3-.26-.6,0-.34-.04-.72-.15-1.06-.15-.57-.6-1.1-1.96-1.25-1.02-.11-4.76-.19-5.4-.19-.19,0-.26.11-.26.26v3.33c0,1.28-.04,5.67,0,6.46.08,1.55.3,2.38,1.25,2.76.64.26,1.66.34,3.14.34,1.13,0,2.38-.04,3.4-.34,1.21-.38,1.62-1.17,1.93-2.79.08-.42.15-.57.34-.57.23,0,.23.3.23.57,0,.3-.3,2.87-.49,3.66-.26.98-.57.98-2.04.98-2.8,0-4.04-.08-5.52-.11-1.51-.04-3.25-.11-4.72-.11-.91,0-1.81.15-2.8.11-.42,0-.6-.08-.6-.3,0-.11.19-.19.42-.23.38-.04.6-.04.87-.11.79-.19,1.28-.72,1.36-3.55.04-1.47.08-3.4.08-6.76v-6.65Z"/>
      </g>
    </g>
  </g>
</svg>